<?xml version="1.0" standalone="no"?>
<!DOCTYPE svg PUBLIC "-//W3C//DTD SVG 20010904//EN"
 "http://www.w3.org/TR/2001/REC-SVG-20010904/DTD/svg10.dtd">
<svg version="1.0" xmlns="http://www.w3.org/2000/svg"
 width="300.000000pt" height="300.000000pt" viewBox="0 0 300.000000 300.000000"
 preserveAspectRatio="xMidYMid meet">
<metadata>
Created by potrace 1.11, written by Peter Selinger 2001-2013
</metadata>
<g transform="translate(0.000000,300.000000) scale(0.100000,-0.100000)"
fill="#000000" stroke="none">
<path d="M1490 2982 l-1475 -2 2 -1478 3 -1477 1477 -3 1478 -2 0 1452 c0 799
3 1465 7 1479 5 18 4 28 -5 30 -6 2 -676 3 -1487 1z m-1423 -48 c-9 -9 -28 6
-21 18 4 6 10 6 17 -1 6 -6 8 -13 4 -17z m2893 6 c0 -7 -487 -10 -1440 -10
-953 0 -1440 3 -1440 10 0 7 487 10 1440 10 953 0 1440 -3 1440 -10z m-2890
-1460 c0 -1273 -2 -1440 -15 -1440 -13 0 -15 167 -15 1440 0 1273 2 1440 15
1440 13 0 15 -167 15 -1440z"/>
</g>
</svg>
